<svg xmlns="http://www.w3.org/2000/svg" width="64" height="64" fill="currentColor" viewBox="0 0 64 64">
  <path d="M21.5 33.792a2.67 2.67 0 0 0-1.792 4.676v2.49a1.792 1.792 0 0 0 3.584 0v-2.49a2.67 2.67 0 0 0-1.792-4.676Zm8.958-7.167H16.125v-3.583a5.374 5.374 0 0 1 9.173-3.817 5.518 5.518 0 0 1 1.398 2.473 1.795 1.795 0 1 0 3.476-.896 9.119 9.119 0 0 0-2.348-4.103 8.958 8.958 0 0 0-15.282 6.343v3.583A5.375 5.375 0 0 0 7.167 32v12.542a5.375 5.375 0 0 0 5.375 5.375h17.916a5.375 5.375 0 0 0 5.375-5.375V32a5.375 5.375 0 0 0-5.375-5.375Zm1.792 17.917a1.792 1.792 0 0 1-1.792 1.791H12.542a1.792 1.792 0 0 1-1.792-1.791V32a1.792 1.792 0 0 1 1.792-1.792h17.916A1.792 1.792 0 0 1 32.25 32v12.542Zm29.125-19.499.621-.642a.943.943 0 0 0 .258-.651.943.943 0 0 0-.258-.65.86.86 0 0 0-.621-.27.859.859 0 0 0-.621.27l-1.225 1.292-2.477 2.594-5.52 5.775a4.217 4.217 0 0 0-3.071-.705 4.334 4.334 0 0 0-2.73 1.633 4.728 4.728 0 0 0-.979 3.13 4.687 4.687 0 0 0 1.276 3.008 4.286 4.286 0 0 0 2.873 1.337 4.246 4.246 0 0 0 2.986-1.026 4.637 4.637 0 0 0 1.56-2.86 4.759 4.759 0 0 0-.673-3.215l4.891-5.134 1.855 1.953a.841.841 0 0 0 1.238-.005.956.956 0 0 0-.004-1.297l-1.855-1.943 1.242-1.293.613.642a.843.843 0 0 0 1.238.005.954.954 0 0 0 .004-1.297l-.621-.651Zm-12.25 14.29a2.54 2.54 0 0 1-1.458-.463 2.727 2.727 0 0 1-.967-1.234 2.872 2.872 0 0 1-.15-1.59 2.792 2.792 0 0 1 .719-1.407 2.59 2.59 0 0 1 1.344-.753 2.514 2.514 0 0 1 1.517.157c.48.208.89.56 1.178 1.013.288.452.442.983.442 1.527 0 .73-.276 1.43-.769 1.945a2.566 2.566 0 0 1-1.856.805Z"/>
</svg>
